<svg width="17" height="16" viewBox="0 0 17 16" fill="none" xmlns="http://www.w3.org/2000/svg">
<path d="M15.8749 7.12501H6.97568L15.4062 4.89923C15.486 4.8782 15.5608 4.84158 15.6264 4.79148C15.6919 4.74137 15.7469 4.67878 15.7882 4.60731C15.8295 4.53584 15.8561 4.4569 15.8667 4.37506C15.8773 4.29322 15.8716 4.21009 15.8499 4.13048L15.2124 1.78673C15.1247 1.4714 14.9162 1.20334 14.6323 1.04059C14.3483 0.877841 14.0116 0.833509 13.6952 0.917195L1.79756 4.05782C1.63914 4.09894 1.49052 4.17126 1.3604 4.27052C1.23027 4.36979 1.12126 4.49403 1.03974 4.63595C0.957771 4.77612 0.904809 4.93135 0.884007 5.0924C0.863205 5.25345 0.874986 5.41704 0.918651 5.57345L1.4999 7.71563C1.4999 7.72657 1.4999 7.73829 1.4999 7.75001V14.625C1.4999 14.9565 1.6316 15.2745 1.86602 15.5089C2.10044 15.7433 2.41838 15.875 2.7499 15.875H15.2499C15.5814 15.875 15.8994 15.7433 16.1338 15.5089C16.3682 15.2745 16.4999 14.9565 16.4999 14.625V7.75001C16.4999 7.58425 16.4341 7.42528 16.3168 7.30807C16.1996 7.19086 16.0407 7.12501 15.8749 7.12501ZM14.0124 2.12501L14.4812 3.84923L12.714 4.31798L10.5171 3.04923L14.0124 2.12501ZM8.80224 3.50001L10.9991 4.76876L8.11318 5.53048L5.91631 4.26329L8.80224 3.50001ZM2.59912 6.98595L2.13037 5.26095L4.20068 4.71407L6.39756 5.98438L2.59912 6.98595ZM15.2499 14.625H2.7499V8.37501H15.2499V14.625Z" fill="#A85FDD"/>
</svg>
