<svg width="18" height="18" viewBox="0 0 18 18" fill="none" xmlns="http://www.w3.org/2000/svg">
<path d="M16.9424 16.0578L13.0306 12.1469C14.1644 10.7857 14.7298 9.03983 14.6091 7.27244C14.4884 5.50506 13.691 3.85223 12.3828 2.65779C11.0745 1.46334 9.35615 0.819256 7.58511 0.859506C5.81406 0.899756 4.12671 1.62125 2.87407 2.87389C1.62143 4.12653 0.899939 5.81388 0.859689 7.58492C0.819439 9.35597 1.46353 11.0744 2.65797 12.3826C3.85241 13.6909 5.50524 14.4883 7.27263 14.6089C9.04002 14.7296 10.7859 14.1642 12.1471 13.0305L16.058 16.9422C16.1161 17.0003 16.185 17.0463 16.2609 17.0777C16.3367 17.1092 16.4181 17.1253 16.5002 17.1253C16.5823 17.1253 16.6636 17.1092 16.7395 17.0777C16.8154 17.0463 16.8843 17.0003 16.9424 16.9422C17.0004 16.8841 17.0465 16.8152 17.0779 16.7393C17.1094 16.6634 17.1255 16.5821 17.1255 16.5C17.1255 16.4179 17.1094 16.3366 17.0779 16.2607C17.0465 16.1848 17.0004 16.1159 16.9424 16.0578ZM2.12518 7.75C2.12518 6.63748 2.45508 5.54994 3.07316 4.62491C3.69125 3.69989 4.56975 2.97892 5.59758 2.55317C6.62542 2.12743 7.75642 2.01604 8.84756 2.23308C9.93871 2.45012 10.941 2.98585 11.7277 3.77252C12.5143 4.55919 13.0501 5.56147 13.2671 6.65261C13.4841 7.74376 13.3727 8.87476 12.947 9.90259C12.5213 10.9304 11.8003 11.8089 10.8753 12.427C9.95024 13.0451 8.8627 13.375 7.75018 13.375C6.25884 13.3733 4.82906 12.7802 3.77453 11.7256C2.72 10.6711 2.12683 9.24133 2.12518 7.75Z" fill="#7A7B9F"/>
</svg>
