<svg width="35" height="34" viewBox="0 0 35 34" fill="none" xmlns="http://www.w3.org/2000/svg">
<path d="M33.125 13.875H13.5467L32.0937 8.97829C32.2693 8.93203 32.4339 8.85146 32.5782 8.74123C32.7225 8.63101 32.8435 8.4933 32.9342 8.33607C33.025 8.17883 33.0837 8.00518 33.107 7.82513C33.1303 7.64508 33.1177 7.4622 33.07 7.28704L31.6675 2.13079C31.4744 1.43708 31.0159 0.847336 30.3912 0.489287C29.7664 0.131238 29.0258 0.033707 28.3297 0.217818L2.15482 7.12719C1.80631 7.21766 1.47934 7.37675 1.19307 7.59514C0.9068 7.81354 0.666974 8.08684 0.487633 8.39907C0.307291 8.70746 0.190776 9.04896 0.145011 9.40327C0.0992455 9.75758 0.125164 10.1175 0.221227 10.4616L1.49998 15.1744C1.49998 15.1984 1.49998 15.2242 1.49998 15.25V30.375C1.49998 31.1043 1.78971 31.8038 2.30543 32.3195C2.82116 32.8353 3.52063 33.125 4.24998 33.125H31.75C32.4793 33.125 33.1788 32.8353 33.6945 32.3195C34.2102 31.8038 34.5 31.1043 34.5 30.375V15.25C34.5 14.8853 34.3551 14.5356 34.0972 14.2777C33.8394 14.0199 33.4896 13.875 33.125 13.875ZM29.0275 2.87501L30.0587 6.66829L26.1709 7.69954L21.3378 4.90829L29.0275 2.87501ZM17.5651 5.90001L22.3983 8.69125L16.0492 10.367L11.2161 7.57922L17.5651 5.90001ZM3.91826 13.5691L2.88701 9.77407L7.4417 8.57094L12.2748 11.3656L3.91826 13.5691ZM31.75 30.375H4.24998V16.625H31.75V30.375Z" fill="#45455F"/>
</svg>
