<svg width="18" height="17" viewBox="0 0 18 17" fill="none" xmlns="http://www.w3.org/2000/svg">
<path d="M16.9314 4.79766C16.858 4.72866 16.769 4.67841 16.6721 4.65121C16.5751 4.624 16.4729 4.62064 16.3744 4.64141C16.253 4.20514 16.0466 3.79715 15.7671 3.44088C15.4876 3.0846 15.1405 2.78706 14.7456 2.56535C14.3508 2.34365 13.916 2.20214 13.4663 2.14896C13.0166 2.09578 12.5608 2.13198 12.1252 2.25548C11.8509 1.65709 11.4107 1.15002 10.8567 0.794513C10.3028 0.439011 9.65838 0.250031 9.00015 0.250031C8.34193 0.250031 7.69754 0.439011 7.14358 0.794513C6.58962 1.15002 6.14937 1.65709 5.87515 2.25548C5.43959 2.13182 4.98388 2.09543 4.53421 2.1484C4.08454 2.20137 3.64976 2.34265 3.25485 2.56414C2.85994 2.78562 2.51268 3.08294 2.233 3.43902C1.95333 3.7951 1.74676 4.20293 1.62515 4.63907C1.52248 4.618 1.41616 4.62309 1.31597 4.65387C1.21578 4.68465 1.12494 4.74013 1.05181 4.81521C0.978675 4.89028 0.925597 4.98255 0.897458 5.08351C0.869319 5.18447 0.867022 5.29089 0.890779 5.39298L3.27828 15.5367C3.34291 15.811 3.49829 16.0553 3.71923 16.2302C3.94017 16.405 4.21371 16.5001 4.49547 16.5H13.5048C13.7866 16.5001 14.0601 16.405 14.2811 16.2302C14.502 16.0553 14.6574 15.811 14.722 15.5367L17.1087 5.39298C17.1336 5.2869 17.1304 5.17615 17.0993 5.07173C17.0682 4.9673 17.0103 4.87282 16.9314 4.79766ZM4.93765 3.37501C5.29485 3.37401 5.64674 3.46151 5.96187 3.62969C6.04695 3.67482 6.1413 3.69968 6.23757 3.70232C6.33384 3.70497 6.42941 3.68533 6.51684 3.64495C6.60426 3.60456 6.68117 3.54452 6.74157 3.46951C6.80196 3.39449 6.8442 3.30654 6.865 3.21251C6.97318 2.7269 7.24367 2.29268 7.63183 1.98147C8.01999 1.67027 8.50264 1.50068 9.00015 1.50068C9.49766 1.50068 9.98031 1.67027 10.3685 1.98147C10.7566 2.29268 11.0271 2.7269 11.1353 3.21251C11.1561 3.30654 11.1983 3.39449 11.2587 3.46951C11.3191 3.54452 11.396 3.60456 11.4835 3.64495C11.5709 3.68533 11.6665 3.70497 11.7627 3.70232C11.859 3.69968 11.9534 3.67482 12.0384 3.62969C12.3277 3.47624 12.6478 3.38969 12.975 3.37644C13.3022 3.3632 13.6282 3.42359 13.929 3.55316C14.2298 3.68273 14.4976 3.87818 14.7127 4.12508C14.9279 4.37198 15.0848 4.66403 15.172 4.97969L12.1595 5.83907L9.465 4.76094C9.16709 4.64183 8.83478 4.64183 8.53687 4.76094L5.84156 5.84063L2.82828 4.97969C2.95583 4.51825 3.23125 4.11139 3.61227 3.82152C3.9933 3.53166 4.4589 3.3748 4.93765 3.37501ZM4.49547 15.25L2.3525 6.14376L5.30953 6.98829L6.41109 15.25H4.49547ZM10.3283 15.25H7.67203L6.55875 6.90001L9.00015 5.92344L11.4416 6.90001L10.3283 15.25ZM13.5048 15.25H11.5892L12.6908 6.98829L15.6478 6.14376L13.5048 15.25Z" fill="#7A7B9F"/>
</svg>
