<svg width="30" height="31" viewBox="0 0 30 31" fill="none" xmlns="http://www.w3.org/2000/svg">
<path d="M30 19.5V29.5C30 29.8315 29.8683 30.1495 29.6339 30.3839C29.3995 30.6183 29.0815 30.75 28.75 30.75H1.25C0.918479 30.75 0.600537 30.6183 0.366117 30.3839C0.131696 30.1495 0 29.8315 0 29.5V19.5C0 19.1685 0.131696 18.8505 0.366117 18.6161C0.600537 18.3817 0.918479 18.25 1.25 18.25C1.58152 18.25 1.89946 18.3817 2.13388 18.6161C2.3683 18.8505 2.5 19.1685 2.5 19.5V28.25H27.5V19.5C27.5 19.1685 27.6317 18.8505 27.8661 18.6161C28.1005 18.3817 28.4185 18.25 28.75 18.25C29.0815 18.25 29.3995 18.3817 29.6339 18.6161C29.8683 18.8505 30 19.1685 30 19.5ZM9.63438 9.13438L13.75 5.01719V19.5C13.75 19.8315 13.8817 20.1495 14.1161 20.3839C14.3505 20.6183 14.6685 20.75 15 20.75C15.3315 20.75 15.6495 20.6183 15.8839 20.3839C16.1183 20.1495 16.25 19.8315 16.25 19.5V5.01719L20.3656 9.13438C20.6002 9.36893 20.9183 9.5007 21.25 9.5007C21.5817 9.5007 21.8998 9.36893 22.1344 9.13438C22.3689 8.89983 22.5007 8.58171 22.5007 8.25001C22.5007 7.9183 22.3689 7.60018 22.1344 7.36563L15.8844 1.11563C15.7683 0.999411 15.6304 0.907212 15.4787 0.844307C15.3269 0.781401 15.1643 0.749023 15 0.749023C14.8357 0.749023 14.6731 0.781401 14.5213 0.844307C14.3696 0.907212 14.2317 0.999411 14.1156 1.11563L7.86562 7.36563C7.63107 7.60018 7.4993 7.9183 7.4993 8.25001C7.49931 8.58171 7.63107 8.89983 7.86562 9.13438C8.10017 9.36893 8.41829 9.5007 8.75 9.5007C9.08171 9.5007 9.39983 9.36893 9.63438 9.13438Z" fill="#A85FDD"/>
</svg>
