<svg width="14" height="14" viewBox="0 0 14 14" fill="none" xmlns="http://www.w3.org/2000/svg">
<path d="M13.067 12.1828C13.1251 12.2409 13.1712 12.3098 13.2026 12.3857C13.234 12.4615 13.2502 12.5429 13.2502 12.625C13.2502 12.7071 13.234 12.7884 13.2026 12.8643C13.1712 12.9402 13.1251 13.0091 13.067 13.0672C13.009 13.1252 12.94 13.1713 12.8642 13.2027C12.7883 13.2342 12.707 13.2503 12.6249 13.2503C12.5427 13.2503 12.4614 13.2342 12.3855 13.2027C12.3097 13.1713 12.2407 13.1252 12.1827 13.0672L6.99986 7.88357L1.81705 13.0672C1.69977 13.1844 1.54071 13.2503 1.37486 13.2503C1.20901 13.2503 1.04995 13.1844 0.932672 13.0672C0.815396 12.9499 0.749512 12.7908 0.749512 12.625C0.749512 12.4591 0.815396 12.3001 0.932672 12.1828L6.11627 6.99998L0.932672 1.81717C0.815396 1.69989 0.749512 1.54083 0.749512 1.37498C0.749512 1.20913 0.815396 1.05007 0.932672 0.932794C1.04995 0.815518 1.20901 0.749634 1.37486 0.749634C1.54071 0.749634 1.69977 0.815518 1.81705 0.932794L6.99986 6.11639L12.1827 0.932794C12.2999 0.815518 12.459 0.749634 12.6249 0.749634C12.7907 0.749634 12.9498 0.815518 13.067 0.932794C13.1843 1.05007 13.2502 1.20913 13.2502 1.37498C13.2502 1.54083 13.1843 1.69989 13.067 1.81717L7.88345 6.99998L13.067 12.1828Z" fill="#7A7B9F"/>
</svg>
